<svg width="20" height="20" viewBox="0 0 20 20" fill="none" xmlns="http://www.w3.org/2000/svg">
<path fill-rule="evenodd" clip-rule="evenodd" d="M15.8346 2.50001H14.168V1.66668C14.168 1.16668 13.8346 0.833344 13.3346 0.833344C12.8346 0.833344 12.5013 1.16668 12.5013 1.66668V2.50001H7.5013V1.66668C7.5013 1.16668 7.16797 0.833344 6.66797 0.833344C6.16797 0.833344 5.83464 1.16668 5.83464 1.66668V2.50001H4.16797C2.7513 2.50001 1.66797 3.58334 1.66797 5.00001V16.6667C1.66797 18.0833 2.7513 19.1667 4.16797 19.1667H15.8346C17.2513 19.1667 18.3346 18.0833 18.3346 16.6667V5.00001C18.3346 3.58334 17.2513 2.50001 15.8346 2.50001ZM4.16797 4.16668H5.83464V5.00001C5.83464 5.50001 6.16797 5.83334 6.66797 5.83334C7.16797 5.83334 7.5013 5.50001 7.5013 5.00001V4.16668H12.5013V5.00001C12.5013 5.50001 12.8346 5.83334 13.3346 5.83334C13.8346 5.83334 14.168 5.50001 14.168 5.00001V4.16668H15.8346C16.3346 4.16668 16.668 4.50001 16.668 5.00001V7.50001H3.33464V5.00001C3.33464 4.50001 3.66797 4.16668 4.16797 4.16668ZM4.16797 17.5H15.8346C16.3346 17.5 16.668 17.1667 16.668 16.6667V9.16668H3.33464V16.6667C3.33464 17.1667 3.66797 17.5 4.16797 17.5Z" fill="black"/>
<mask id="mask0_1949_1307" style="mask-type:luminance" maskUnits="userSpaceOnUse" x="1" y="0" width="18" height="20">
<path fill-rule="evenodd" clip-rule="evenodd" d="M15.8346 2.50001H14.168V1.66668C14.168 1.16668 13.8346 0.833344 13.3346 0.833344C12.8346 0.833344 12.5013 1.16668 12.5013 1.66668V2.50001H7.5013V1.66668C7.5013 1.16668 7.16797 0.833344 6.66797 0.833344C6.16797 0.833344 5.83464 1.16668 5.83464 1.66668V2.50001H4.16797C2.7513 2.50001 1.66797 3.58334 1.66797 5.00001V16.6667C1.66797 18.0833 2.7513 19.1667 4.16797 19.1667H15.8346C17.2513 19.1667 18.3346 18.0833 18.3346 16.6667V5.00001C18.3346 3.58334 17.2513 2.50001 15.8346 2.50001ZM4.16797 4.16668H5.83464V5.00001C5.83464 5.50001 6.16797 5.83334 6.66797 5.83334C7.16797 5.83334 7.5013 5.50001 7.5013 5.00001V4.16668H12.5013V5.00001C12.5013 5.50001 12.8346 5.83334 13.3346 5.83334C13.8346 5.83334 14.168 5.50001 14.168 5.00001V4.16668H15.8346C16.3346 4.16668 16.668 4.50001 16.668 5.00001V7.50001H3.33464V5.00001C3.33464 4.50001 3.66797 4.16668 4.16797 4.16668ZM4.16797 17.5H15.8346C16.3346 17.5 16.668 17.1667 16.668 16.6667V9.16668H3.33464V16.6667C3.33464 17.1667 3.66797 17.5 4.16797 17.5Z" fill="white"/>
</mask>
<g mask="url(#mask0_1949_1307)">
<rect width="20" height="20" fill="#0C0B3B"/>
</g>
</svg>
