<svg
    width="24"
    height="24"
    viewBox="0 0 24 24"
    fill="none"
    xmlns="http://www.w3.org/2000/svg"
  >
    <path
      d="M17.913 5.02972L12 10.9427L6.08702 5.02972C5.9448 4.89958 5.75785 4.82933 5.56513 4.8336C5.3724 4.83787 5.18875 4.91634 5.05244 5.05265C4.91613 5.18896 4.83766 5.37261 4.83339 5.56534C4.82912 5.75806 4.89937 5.94501 5.02952 6.08722L10.9395 12.0002L5.02802 17.9117C4.95579 17.9806 4.89806 18.0631 4.85821 18.1546C4.81836 18.246 4.79719 18.3446 4.79596 18.4443C4.79472 18.5441 4.81344 18.6431 4.85101 18.7355C4.88859 18.8279 4.94426 18.9119 5.01475 18.9825C5.08525 19.0531 5.16914 19.1089 5.26151 19.1466C5.35388 19.1843 5.45285 19.2031 5.55261 19.202C5.65237 19.2009 5.7509 19.1799 5.84242 19.1402C5.93393 19.1005 6.01659 19.0429 6.08552 18.9707L12 13.0592L17.913 18.9722C18.0552 19.1024 18.2422 19.1726 18.4349 19.1684C18.6276 19.1641 18.8113 19.0856 18.9476 18.9493C19.0839 18.813 19.1624 18.6293 19.1666 18.4366C19.1709 18.2439 19.1007 18.0569 18.9705 17.9147L13.0575 12.0017L18.9705 6.08722C19.0427 6.0184 19.1005 5.93583 19.1403 5.84437C19.1802 5.75291 19.2013 5.6544 19.2026 5.55464C19.2038 5.45489 19.1851 5.35589 19.1475 5.26347C19.1099 5.17105 19.0543 5.08708 18.9838 5.01648C18.9133 4.94589 18.8294 4.8901 18.737 4.85239C18.6447 4.81469 18.5457 4.79583 18.4459 4.79692C18.3462 4.79801 18.2476 4.81904 18.1561 4.85876C18.0646 4.89848 17.9819 4.9561 17.913 5.02822V5.02972Z"
      fill="#B0B0BB"
    />
  </svg>