<svg width="32" height="32" viewBox="0 0 32 32" fill="none" xmlns="http://www.w3.org/2000/svg">
<path d="M14.4762 20.6247L19.0476 16M19.0476 16L14.4762 11.4286M19.0476 16H3.80952" stroke="#738cbf" stroke-opacity="0.3" stroke-linecap="round" stroke-linejoin="round"/>
<path d="M6.85714 12.9524V8.44189C6.85714 7.63572 7.17655 6.86239 7.74545 6.2912C8.31436 5.72001 9.08641 5.3975 9.89257 5.39428L22.083 5.34551C22.4833 5.34391 22.8799 5.42115 23.2503 5.57283C23.6206 5.72451 23.9575 5.94765 24.2416 6.22951C24.5257 6.51138 24.7516 6.84645 24.9062 7.21559C25.0608 7.58474 25.1413 7.98072 25.1429 8.38094V23.619C25.1429 24.4273 24.8218 25.2025 24.2502 25.774C23.6787 26.3456 22.9035 26.6667 22.0952 26.6667H9.90476C9.09648 26.6667 8.32131 26.3456 7.74977 25.774C7.17823 25.2025 6.85714 24.4273 6.85714 23.619V19.0476" stroke="#738cbf" stroke-linecap="round" stroke-linejoin="round"/>
</svg>
