<svg width="18" height="18" viewBox="0 0 18 18" fill="none" xmlns="http://www.w3.org/2000/svg">
<path d="M8.16407 2.525C9.24713 2.52401 10.3062 2.84427 11.2072 3.44527C12.1082 4.04627 12.8107 4.901 13.2259 5.90134C13.641 6.90168 13.7502 8.00267 13.5395 9.06505C13.3288 10.1274 12.8077 11.1034 12.0422 11.8696C11.2768 12.6358 10.3012 13.1578 9.23903 13.3694C8.17685 13.5811 7.07575 13.473 6.07503 13.0587C5.07431 12.6445 4.21894 11.9427 3.61712 11.0423C3.0153 10.1418 2.69407 9.08306 2.69407 8C2.70063 6.55083 3.27888 5.16281 4.30315 4.13761C5.32741 3.11241 6.7149 2.53289 8.16407 2.525ZM8.16407 1.5C6.87849 1.5 5.62178 1.88122 4.55286 2.59545C3.48394 3.30968 2.65082 4.32484 2.15885 5.51256C1.66688 6.70028 1.53816 8.00721 1.78896 9.26809C2.03977 10.529 2.65883 11.6872 3.56787 12.5962C4.47691 13.5052 5.6351 14.1243 6.89598 14.3751C8.15686 14.6259 9.46379 14.4972 10.6515 14.0052C11.8392 13.5132 12.8544 12.6801 13.5686 11.6112C14.2829 10.5423 14.6641 9.28558 14.6641 8C14.6641 6.27609 13.9793 4.62279 12.7603 3.40381C11.5413 2.18482 9.88798 1.5 8.16407 1.5Z" fill="#222161"/>
<path d="M17.5005 16.645L13.8155 12.935L13.1055 13.64L16.7905 17.35C16.8368 17.3966 16.8918 17.4337 16.9524 17.459C17.013 17.4844 17.078 17.4975 17.1437 17.4978C17.2094 17.498 17.2745 17.4853 17.3353 17.4604C17.3961 17.4354 17.4513 17.3988 17.498 17.3525C17.5446 17.3062 17.5816 17.2512 17.607 17.1906C17.6323 17.13 17.6455 17.065 17.6457 16.9993C17.646 16.9336 17.6333 16.8685 17.6083 16.8077C17.5834 16.7469 17.5468 16.6916 17.5005 16.645Z" fill="#222161"/>
</svg>
